<svg width="18" height="18" viewBox="0 0 18 18" fill="none" xmlns="http://www.w3.org/2000/svg">
<path d="M16.3107 1H1.68913C1.43125 0.999525 1.19483 1.14008 1.07694 1.36391C0.957429 1.59075 0.978404 1.86392 1.13109 2.0711L6.48781 9.43299C6.4896 9.43553 6.49155 9.43791 6.49334 9.44045C6.68798 9.6968 6.79318 10.0072 6.79383 10.3264V16.3285C6.79269 16.5063 6.86424 16.677 6.99269 16.8031C7.12115 16.9292 7.29578 17 7.47789 17C7.57057 17 7.66212 16.9819 7.74765 16.9473L10.7577 15.8275C11.0275 15.7473 11.2065 15.499 11.2065 15.2V10.3264C11.207 10.0074 11.3123 9.6968 11.5068 9.44045C11.5086 9.43791 11.5106 9.43553 11.5123 9.43299L16.8689 2.07078C17.0216 1.86376 17.0426 1.59075 16.9231 1.36391C16.8052 1.14008 16.5688 0.999525 16.3107 1ZM10.8356 8.95931C10.5364 9.35542 10.3746 9.83434 10.3737 10.3264V15.1013L7.62635 16.1232V10.3264C7.62537 9.83434 7.46358 9.35542 7.16423 8.95931L1.96377 1.81221H16.0362L10.8356 8.95931Z" fill="#6788FF" stroke="#6788FF" stroke-width="0.3"/>
</svg>
